<?xml version="1.0" standalone="no"?>
<!DOCTYPE svg PUBLIC "-//W3C//DTD SVG 20010904//EN"
 "http://www.w3.org/TR/2001/REC-SVG-20010904/DTD/svg10.dtd">
<svg version="1.0" xmlns="http://www.w3.org/2000/svg"
 width="227.000000pt" height="227.000000pt" viewBox="0 0 227.000000 227.000000"
 preserveAspectRatio="xMidYMid meet">
<metadata>
Created by potrace 1.14, written by Peter Selinger 2001-2017
</metadata>
<g transform="translate(0.000000,227.000000) scale(0.100000,-0.100000)"
fill="#000000" stroke="none">
<path d="M1313 1592 c-14 -2 -23 -10 -23 -21 0 -26 20 -39 58 -37 19 0 37 -4
42 -9 5 -6 25 -55 45 -110 20 -55 43 -115 51 -133 8 -18 11 -44 8 -57 -8 -34
3 -63 29 -71 40 -14 68 1 81 44 6 17 1 29 -23 51 -20 19 -42 59 -62 112 -58
156 -81 214 -88 221 -7 8 -86 15 -118 10z"/>
<path d="M935 1468 c12 -37 20 -40 105 -42 64 -1 84 2 96 15 13 15 13 18 -1
33 -13 12 -37 16 -111 16 -94 0 -95 0 -89 -22z"/>
<path d="M1320 1483 c-32 -11 -126 -58 -145 -73 -11 -8 -49 -44 -85 -80 -36
-36 -77 -73 -91 -82 -49 -31 -41 -90 15 -104 37 -9 66 18 66 62 0 63 138 175
276 224 29 10 31 13 20 36 -11 23 -26 28 -56 17z"/>
<path d="M680 1388 c0 -4 12 -19 26 -33 24 -24 33 -26 93 -25 85 3 84 3 64
-19 -9 -11 -21 -17 -27 -13 -6 4 -70 7 -143 7 -141 1 -146 -2 -95 -49 18 -15
35 -17 126 -14 l106 3 -1 -40 c-1 -23 -4 -30 -6 -17 -4 22 -7 22 -159 22 -85
0 -154 -3 -154 -6 0 -4 12 -19 28 -33 26 -25 31 -26 155 -26 78 0 127 4 127
10 0 6 14 -13 30 -42 62 -108 172 -139 276 -78 73 43 112 146 84 220 -10 25
-12 26 -32 13 -17 -12 -21 -24 -21 -68 1 -48 -3 -57 -36 -93 -110 -117 -285
11 -216 157 17 36 55 62 102 69 17 3 41 14 53 25 21 19 21 21 3 29 -21 11 -87
7 -113 -7 -27 -14 -37 -12 -16 3 15 11 -3 13 -118 13 -75 -1 -136 -4 -136 -8z
m225 -37 c-3 -6 -11 -11 -16 -11 -5 0 -4 6 3 14 14 16 24 13 13 -3z"/>
<path d="M1557 1387 c-7 -20 24 -57 58 -71 56 -24 85 -121 53 -179 -37 -70
-129 -95 -193 -53 -59 39 -79 108 -50 170 12 25 13 39 5 60 -9 24 -13 26 -26
15 -8 -7 -23 -26 -31 -43 -68 -130 38 -292 184 -281 77 5 149 57 175 124 12
34 17 111 6 117 -4 3 -8 13 -8 23 0 51 -159 159 -173 118z"/>
<path d="M78 882 c-58 -4 -68 -18 -69 -100 -1 -73 12 -102 49 -103 168 -8 221
2 223 43 7 124 -6 158 -59 159 -20 0 -50 1 -67 2 -16 1 -51 1 -77 -1z m67 -54
c14 2 36 1 50 -2 24 -6 26 -11 23 -49 l-3 -42 -49 -3 c-82 -5 -96 2 -96 49 0
32 4 41 23 48 12 5 23 5 25 1 1 -4 14 -5 27 -2z"/>
<path d="M995 882 c-52 -5 -65 -17 -65 -63 0 -49 18 -59 110 -62 49 -1 70 -5
70 -14 0 -15 -1 -15 -55 -18 -22 -2 -50 4 -62 11 -36 22 -63 18 -63 -10 0 -40
24 -50 121 -50 100 0 119 10 124 63 4 45 -21 61 -106 67 -77 6 -87 9 -75 21
13 13 99 11 113 -2 7 -7 21 -12 30 -10 10 2 21 4 26 4 14 2 7 41 -11 50 -20
11 -100 17 -157 13z"/>
<path d="M1503 882 c-35 -5 -47 -30 -48 -99 -2 -94 9 -104 115 -107 147 -4
160 5 160 115 0 81 -8 88 -115 91 -49 2 -100 2 -112 0z m161 -70 c6 -18 1 -56
-9 -72 -9 -15 -122 -13 -132 3 -11 16 -11 48 -1 69 12 25 135 24 142 0z"/>
<path d="M309 876 c-2 -2 -3 -47 -1 -100 l3 -96 30 0 29 0 0 70 c0 39 3 70 8
70 4 -1 28 -32 55 -70 l47 -70 55 0 55 0 0 100 0 100 -33 0 -34 0 2 -75 c0
-41 0 -75 -1 -75 -2 0 -26 34 -55 75 l-51 75 -53 0 c-28 0 -54 -2 -56 -4z"/>
<path d="M619 878 c-1 -2 -2 -47 -3 -100 -1 -74 2 -98 11 -99 7 0 42 0 78 0
140 0 137 -1 133 24 -3 20 -9 22 -63 24 -33 1 -68 2 -77 2 -10 1 -18 8 -18 16
0 12 15 15 75 15 67 0 75 2 75 19 0 24 -12 28 -87 26 -51 -1 -63 2 -63 15 0
13 13 16 78 15 72 0 77 1 80 23 3 22 2 22 -107 22 -61 0 -112 -1 -112 -2z"/>
<path d="M1194 780 l0 -100 33 0 c28 0 33 3 33 25 0 24 2 24 72 24 63 -1 75 2
90 21 22 27 23 78 2 108 -14 20 -23 22 -122 22 l-108 0 0 -100z m178 37 c15
-24 -5 -37 -57 -37 -55 0 -75 16 -52 39 14 14 99 12 109 -2z"/>
<path d="M1754 780 l0 -100 32 0 c31 0 32 2 31 38 -3 49 18 49 78 -1 40 -34
50 -38 90 -35 l45 3 -61 49 -62 49 36 31 c19 17 45 39 58 49 23 17 23 17 -25
17 -42 0 -54 -5 -88 -36 -48 -43 -74 -42 -71 4 1 30 -1 32 -31 32 l-32 0 0
-100z"/>
<path d="M2044 853 c1 -16 -2 -38 -6 -50 -4 -12 -4 -24 1 -27 4 -3 6 -25 4
-50 -3 -46 -3 -46 29 -47 104 -3 183 3 190 14 16 25 -1 32 -80 35 -64 2 -82 6
-82 17 0 12 16 15 74 15 59 0 75 3 80 16 10 25 3 27 -77 29 -56 0 -72 4 -72
15 0 12 16 15 78 14 74 0 77 0 77 23 0 23 -2 23 -109 23 l-108 0 1 -27z"/>
</g>
</svg>
